<svg xmlns="http://www.w3.org/2000/svg" version="1.1" xmlns:xlink="http://www.w3.org/1999/xlink" width="200" height="200"><svg width="200" height="200" viewBox="0 0 200 200" fill="none" xmlns="http://www.w3.org/2000/svg">
<g clip-path="url(#clip0_65_630)">
<mask id="SvgjsMask1035" style="mask-type:alpha" maskUnits="userSpaceOnUse" x="46" y="1" width="153" height="121">
<path d="M66.1132 7.04084C67.1553 3.15237 71.1524 0.84478 75.0409 1.88655L192.981 33.4881C196.87 34.5302 199.178 38.5281 198.136 42.4168L178.325 116.348C177.283 120.237 173.286 122.546 169.397 121.504L147.425 115.616L137.425 78.2928C136.28 74.0217 131.89 71.4872 127.619 72.6317L57.3114 91.4696L51.4579 89.9012C47.5692 88.8592 45.2616 84.8622 46.3036 80.9735L66.1132 7.04084Z" fill="#D9D9D9"></path>
</mask>
<g mask="url(#mask0_65_630)">
<rect x="68" width="136.68" height="91.12" rx="7.29" transform="rotate(15 68 0)" fill="white"></rect>
<rect width="136.68" height="11.39" transform="translate(68) rotate(15)" fill="#F16BA8"></rect>
<rect width="136.68" height="11.39" transform="translate(65.052 11.0019) rotate(15)" fill="#ED2123"></rect>
<rect width="136.68" height="11.39" transform="translate(62.1041 22.0038) rotate(15)" fill="#F68F1E"></rect>
<rect width="136.68" height="11.39" transform="translate(59.1562 33.0057) rotate(15)" fill="#F6EC11"></rect>
<rect width="136.68" height="11.39" transform="translate(56.2082 44.0076) rotate(15)" fill="#0B8F44"></rect>
<rect width="136.68" height="11.39" transform="translate(53.2603 55.0095) rotate(15)" fill="#1FBCBD"></rect>
<rect width="136.68" height="11.39" transform="translate(50.3123 66.0113) rotate(15)" fill="#452D8B"></rect>
<rect width="136.68" height="11.39" transform="translate(47.3644 77.0132) rotate(15)" fill="#892889"></rect>
</g>
<g clip-path="url(#clip1_65_630)">
<rect y="112" width="136.68" height="91.12" rx="7.2896" transform="rotate(-15 0 112)" fill="white"></rect>
<rect width="136.68" height="18.224" transform="translate(0 112) rotate(-15)" fill="#5BCEFA"></rect>
<rect width="136.68" height="18.224" transform="translate(4.71672 129.603) rotate(-15)" fill="#F5A9B8"></rect>
<rect width="136.68" height="18.224" transform="translate(9.43344 147.206) rotate(-15)" fill="white"></rect>
<rect width="136.68" height="18.224" transform="translate(14.1502 164.809) rotate(-15)" fill="#F5A9B8"></rect>
<rect width="136.68" height="18.224" transform="translate(18.8669 182.412) rotate(-15)" fill="#5BCEFA"></rect>
</g>
</g>
<defs>
<clipPath id="SvgjsClipPath1034">
<rect width="200" height="200" fill="white"></rect>
</clipPath>
<clipPath id="SvgjsClipPath1033">
<rect y="112" width="136.68" height="91.12" rx="7.2896" transform="rotate(-15 0 112)" fill="white"></rect>
</clipPath>
</defs>
</svg><style>@media (prefers-color-scheme: light) { :root { filter: none; } }
@media (prefers-color-scheme: dark) { :root { filter: none; } }
</style></svg>